

<svg version="1.1" id="Layer_1" xmlns="http://www.w3.org/2000/svg" xmlns:xlink="http://www.w3.org/1999/xlink" x="0px" y="0px"
	 viewBox="0 0 1412 1080" style="enable-background:new 0 0 1412 1080;" xml:space="preserve">
<style type="text/css">
	.st0{fill:#4C00FF;}
	.st1{fill:#FF5252;}
</style>
<g>
	<g>
		<g>
			<g>
				<g>
					<g>
						<g>
							<path d="M1368.2,892.5v112h-41.1V899.9c0-25.5-11-39.7-32.3-39.7c-21.3,0-35.4,14.9-39.4,40c-1.1,6-1.4,15.2-1.4,34.7v69.4
								h-41.1V826.5h36.4c0.1,1.6,1,17.5,1,18.5c0,1.3,1.6,2,2.6,1.1c15.1-12,31.7-23,54.9-23C1345.8,823,1368.2,848.8,1368.2,892.5
								z"/>
							<path d="M1146.5,826.6l-1.3,20.3c-0.1,1.3-1.7,2-2.6,1.1c-5-4.7-23.3-24.9-54.5-24.9c-44.7,0-77.5,38.6-77.5,90.9l0,0
								c0,53.1,32.6,91.8,77.5,91.8c30,0,48.4-19.5,51.8-23.8c1-1.1,2.8-0.4,2.8,1c-0.4,5.4-1.1,18.9-5.7,30.4
								c-5.7,14.5-18.5,28-44.2,28c-21.2,0-40-8.1-57.8-25.5l-21.5,29.5c19.5,22.1,50.2,34.4,83.7,34.4c53.8,0,86.1-36.8,86.1-97
								V826.6H1146.5z M1097,968.6c-26.6,0-45.4-23-45.4-54.5s18.8-53.9,45.4-53.9c26.6,0,45.4,22.3,45.4,53.9
								C1142.2,945.7,1123.5,968.6,1097,968.6z"/>
							<path d="M924.7,951.7c0,33.7-28.3,56.3-69.9,56.3c-32.6,0-61.6-12.7-79-30.7l0,0l0,0l13.5-32.2
								c13.1,11.8,34.1,28.7,64.2,28.7c20.9,0,33-9.2,33-20.9c0-13.5-16.6-17.1-36.6-20.9c-28.3-6-65.9-15.7-65.9-54.2
								c0-32.3,26.2-54.5,64.9-54.5c29.7,0,55.3,11.4,73,26.2l-20.2,28.3c-17.1-13.5-35-20.2-52.8-20.2c-17.8,0-26.6,7.4-26.6,18.1
								c0,14.9,19.2,18.8,33.3,21.6C891.1,904.1,924.7,914.8,924.7,951.7z"/>
							<path d="M323.4,823c-50.2,0-86.4,39-86.4,92.5s36.1,92.5,86.4,92.5s86.5-39,86.5-92.5S373.8,823,323.4,823z M323.4,970.7
								c-26.6,0-45.4-22.6-45.4-55.3c0-32.6,18.4-55.3,45.4-55.3c26.9,0,45.4,22.6,45.4,55.3C368.8,948.1,350,970.7,323.4,970.7z"/>
							<path d="M424.4,915.5c0-52.8,36.1-92.5,84.4-92.5c38.3,0,66.3,19.2,79.4,55.3l-36.4,13.8c-10-22.3-23-31.9-42.8-31.9
								c-24.8,0-43.3,23.3-43.3,55.3c0,31.9,18.4,55.3,43.3,55.3c19.9,0,32.9-9.5,42.8-31.9l36.4,13.8
								c-13.1,36.1-41.1,55.3-79.4,55.3C460.6,1008,424.4,968.3,424.4,915.5L424.4,915.5L424.4,915.5L424.4,915.5z"/>
							<path d="M204.6,743.9c-0.7,0-1.6,0.1-2.3,0.6l-26.7,14.2c-0.6,0.3-0.9,0.9-0.9,1.4v84.7c0,1.4-1.7,2-2.7,1.1
								c-4-3.4-13.2-12.1-26-18.1c-6.7-3.1-16.5-4.8-25.5-4.8c-45,0-77.5,39-77.5,92.5s32.6,92.5,77.5,92.5
								c23.6,0,41.4-12.4,52.2-23.5c0.7-0.7,1.1-1.1,1.8-1.8c1-1,2.7-0.4,2.7,1l1.4,20.8h37.1V745.1c0-0.6-0.4-1.1-1.1-1.1
								C214.7,743.9,204.6,743.9,204.6,743.9z M129.4,970.7c-26.9,0-45.4-22.6-45.4-55.3s18.9-55.2,45.4-55.2
								c26.6,0,45.4,22.6,45.4,55.3C174.7,948.1,156.4,970.7,129.4,970.7z"/>
							<path d="M973.1,827.2l-25.8,13.7c-0.6,0.3-0.9,0.9-0.9,1.4v162.2h41.1V827.6c0-0.6-0.4-1.1-1.1-1.1h-11.1
								C974.5,826.6,973.8,826.7,973.1,827.2z"/>
							<path d="M967,797.7c13.7,0,24.8-11.1,24.8-24.8s-11.1-24.8-24.8-24.8c-13.7,0-24.8,11.1-24.8,24.8S953.3,797.7,967,797.7z"/>
							<path d="M761.1,826.5v96.6c0,73.3-41,84.8-77.5,84.8S606,996.2,606,923.1v-96.6h41v106.9c0,10.4,2.6,37.4,36.6,37.4
								c34,0,36.6-26.9,36.6-37.4V826.5H761.1z"/>
						</g>
					</g>
					<g>
						<path d="M1391.7,986.2v2.6h-5.8v15.5h-2.8v-15.5h-5.8v-2.6H1391.7z M1412,1004.3h-2.8v-14.2l-5.5,10.7h-1.6l-5.5-10.5v14.1
							h-2.8v-18.1h3.7l5.4,10.4l5.4-10.4h3.7L1412,1004.3L1412,1004.3z"/>
					</g>
				</g>
			</g>
		</g>
	</g>
	<g>
		<g>
			<g>
				<path class="st0" d="M877.4,467.7v165.9c0,8.8-7.1,15.9-15.9,15.9H425.6c-8.8,0-15.9-7.1-15.9-15.9v-436
					c0-8.8,7.1-15.9,15.9-15.9h165.8v270.1c0,8.8,7.1,15.9,15.9,15.9L877.4,467.7L877.4,467.7z"/>
				<path class="st1" d="M1059.2,233.8c0,139.6-81.3,233.7-181.8,234V292c0-5.1-2-9.9-5.6-13.5l-91.2-91.2
					c-3.6-3.6-8.4-5.6-13.5-5.6H591.4V15.9c0-8.8,7.1-15.9,15.9-15.9h246C969.8,0,1059.2,93.9,1059.2,233.8z"/>
				<path d="M871.8,278.5c3.6,3.6,5.6,8.4,5.6,13.5v175.8H607.3c-8.8,0-15.9-7.1-15.9-15.9V181.7h175.8c5.1,0,9.9,2,13.5,5.6
					L871.8,278.5z"/>
			</g>
		</g>
	</g>
</g>
</svg>